<svg xmlns="http://www.w3.org/2000/svg" xmlns:xlink="http://www.w3.org/1999/xlink" version="1.1" x="0px" y="0px" viewBox="0 0 60 75" style="enable-background:new 0 0 60 60;" xml:space="preserve"><path d="M39.0984497,40.1965942c-3.0353394,0-4.6660156,0.8961182-6.1110229,1.6842651  c-1.0009766,0.5529175-1.8728638,1.0296021-3.1240845,1.124939c-1.6468506,0.1271362-2.7608643-0.2351685-3.9394531-0.6292114  c-1.0413818-0.3431396-2.1150513-0.6990967-3.5115967-0.6990967c-1.7276001,0-3.0918579,1.1121826-4.4077148,2.1863403  c-1.0897827,0.8833618-2.2119141,1.7985229-3.3016968,1.8430176c-3.3017578,0.1207886-4.7709961,2.923584-4.8275146,3.0443726  c-0.0968628,0.1970215-0.0725708,0.4194336,0.0808105,0.5910645c0.1533813,0.1779175,0.4036255,0.2796631,0.6699829,0.2796631  H49.374939c0.4440308,0,0.807251-0.2796631,0.807251-0.6355591C50.1821899,45.3128662,44.5959473,40.1965942,39.0984497,40.1965942z  "/><path d="M26.4162598,40.8388672c0.9364624,0.3148804,1.7276001,0.5812378,2.7931519,0.5812378  c0.1695557,0,0.347168-0.0081177,0.5327759-0.024231c0.8638306-0.0645752,1.4692383-0.3793945,2.4622192-0.9283447  c1.1140137-0.6054688,2.397583-1.3078003,4.2946777-1.6629639c0.0484009-0.1130371,0.0888062-0.2260132,0.1210327-0.3471069  l2.074707-6.9425049c0.1291504-0.4278564-0.1130371-0.8718262-0.5408325-1.0010376l-1.8728638-0.5650635l-0.2341919,0.7749634  c-0.0887451,0.2744751-0.2017822,0.5085449-0.3632202,0.7184448l-2.7528076,4.036377  c-0.4520264,0.6619263-1.1947021,1.0574951-1.9938965,1.0574951c-0.2987061,0-0.5328369-0.0645752-0.6862183-0.1049194  c-1.0090942-0.2906494-1.7114258-1.2028198-1.7355957-2.2765503l-0.0968628-4.9404297  c0-0.2664185,0.0322876-0.5004883,0.1049194-0.7426758l0.2341309-0.7669067l-1.8809814-0.5651245  c-0.4277954-0.1291504-0.8798828,0.1130371-1.0009766,0.5408936l-2.074707,6.9505615  c-0.5811768,1.9293823-0.4923706,3.8345337,0.2583618,5.578186C24.9470215,40.3544922,25.7139893,40.6047363,26.4162598,40.8388672z  "/><path d="M41.6246948,15.8483276l0.6046753-2.0236816c0.1276855-0.4272461-0.1151123-0.8766479-0.5423584-1.0043335  l-8.0569458-2.4083862c-0.2049561-0.0615234-0.4272461-0.0386353-0.6140747,0.0630493  c-0.1884155,0.1016846-0.3287354,0.274353-0.3902588,0.4793091l-0.6046753,2.0236816  c-0.4760132,1.5917969,0.2337036,3.2525635,1.6072388,4.0581055l-3.5550537,11.9036865  c-0.024292,0.0807495-0.0403442,0.161438-0.0403442,0.2421875l0.0968628,4.9404907  c0.0080566,0.3551636,0.2340698,0.6619263,0.5731201,0.7587891c0.0807495,0.024231,0.1533813,0.0404053,0.2341309,0.0404053  c0.2583008,0,0.5085449-0.1291504,0.6619263-0.3552246l2.7931519-4.0847778  c0.0484009-0.0645752,0.0807495-0.137207,0.1049194-0.2179565l3.5547485-11.9023438  C38.1143799,18.364624,38.177002,18.375,38.239563,18.375c0.5786133,0,1.1517334-0.1434937,1.6752319-0.4257202  C40.746521,17.5007324,41.3543091,16.7541504,41.6246948,15.8483276z M39.1484985,16.5286865  c-0.4509888,0.2412109-0.9648438,0.2954712-1.4554443,0.1517944l-0.5575562-0.1655884l-2.2755737-0.6799316  c-1.0161743-0.3043213-1.5956421-1.3780518-1.2921143-2.3950195l0.3736572-1.2503052l6.5101929,1.9464111l-0.3736572,1.2503052  C39.930542,15.8790894,39.6002197,16.2843018,39.1484985,16.5286865z"/><text x="0" y="75" fill="#000000" font-size="5px" font-weight="bold" font-family="'Helvetica Neue', Helvetica, Arial-Unicode, Arial, Sans-serif">Created by Vectorstall</text><text x="0" y="80" fill="#000000" font-size="5px" font-weight="bold" font-family="'Helvetica Neue', Helvetica, Arial-Unicode, Arial, Sans-serif">from the Noun Project</text></svg>