<svg width="22" height="20" viewBox="0 0 22 20" fill="none" xmlns="http://www.w3.org/2000/svg">
<path d="M15.5492 14.8303C14.0316 14.8303 13.2162 15.2724 12.4937 15.6612C11.9932 15.934 11.5573 16.1692 10.9317 16.2162C10.1083 16.2789 9.55125 16.1002 8.96196 15.9058C8.44127 15.7365 7.90443 15.5609 7.20616 15.5609C6.34236 15.5609 5.66023 16.1096 5.0023 16.6395C4.45741 17.0753 3.89635 17.5268 3.35145 17.5487C1.70058 17.6083 0.965956 18.991 0.937697 19.0506C0.889266 19.1478 0.901412 19.2575 0.978102 19.3422C1.05479 19.43 1.17991 19.4802 1.31309 19.4802H20.6875C20.9095 19.4802 21.0911 19.3422 21.0911 19.1666C21.0911 17.3543 18.298 14.8303 15.5492 14.8303Z" fill="#347E41"/>
<path d="M9.20812 15.1472C9.67635 15.3025 10.0719 15.4339 10.6047 15.4339C10.6895 15.4339 10.7783 15.4299 10.8711 15.422C11.303 15.3901 11.6057 15.2348 12.1022 14.964C12.6592 14.6653 13.301 14.3188 14.2495 14.1436C14.2737 14.0878 14.2939 14.0321 14.31 13.9724L15.3474 10.5474C15.412 10.3363 15.2909 10.1173 15.077 10.0535L14.1406 9.77477L14.0235 10.1571C13.9791 10.2925 13.9226 10.408 13.8418 10.5115L12.4654 12.5028C12.2394 12.8294 11.8681 13.0245 11.4685 13.0245C11.3191 13.0245 11.2021 12.9926 11.1254 12.9727C10.6208 12.8294 10.2697 12.3793 10.2576 11.8496L10.2092 9.41236C10.2092 9.28093 10.2253 9.16545 10.2616 9.04598L10.3787 8.66763L9.43819 8.38884C9.2243 8.32513 8.99825 8.4446 8.9377 8.65568L7.90035 12.0846C7.60976 13.0365 7.65417 13.9763 8.02953 14.8365C8.4735 14.9082 8.85699 15.0317 9.20812 15.1472Z" fill="#347E41"/>
<path d="M16.8123 2.8185L17.1147 1.82015C17.1785 1.60937 17.0571 1.38767 16.8435 1.32468L12.815 0.13654C12.7126 0.106188 12.6014 0.11748 12.508 0.167644C12.4138 0.217809 12.3436 0.302992 12.3129 0.404103L12.0105 1.40245C11.7725 2.18774 12.1274 3.00705 12.8141 3.40445L11.0366 9.27694C11.0245 9.31677 11.0164 9.35658 11.0164 9.39642L11.0649 11.8337C11.0689 12.0089 11.1819 12.1603 11.3514 12.2081C11.3918 12.22 11.4281 12.228 11.4685 12.228C11.5977 12.228 11.7228 12.1643 11.7995 12.0528L13.196 10.0376C13.2202 10.0057 13.2364 9.96991 13.2485 9.93007L15.0259 4.05825C15.0572 4.05987 15.0885 4.06499 15.1198 4.06499C15.4091 4.06499 15.6956 3.9942 15.9574 3.85497C16.3733 3.63368 16.6772 3.26537 16.8123 2.8185ZM15.5742 3.15414C15.3488 3.27314 15.0918 3.29991 14.8465 3.22903L14.5677 3.14734L13.43 2.8119C12.9219 2.66177 12.6321 2.13207 12.7839 1.63036L12.9707 1.01354L16.2258 1.97377L16.039 2.59059C15.9653 2.83367 15.8001 3.03358 15.5742 3.15414Z" fill="#347E41"/>
</svg>
